# xmcd
#
# Track frame offsets:
#	150
#	5656
#	20110
#	34414
#	47073
#	72193
#	105053
#	122483
#
# Disc length: 2242 seconds
#
# Revision: 1
# Processed by: cddbd v1.5.1PL2 Copyright (c) Steve Scherf et al.
# Submitted via: audiograbber 1.83.01
#
DISCID=6108c008
DTITLE=Blueshaus - X-Mas
DYEAR=2005
DGENRE=Blues
TTITLE0=Signe
TTITLE1=Dudolph
TTITLE2=Santa Claus
TTITLE3=Drummer Boy
TTITLE4=Shall Be Released
TTITLE5=Jingel Bells
TTITLE6=Feliz Navidad
TTITLE7=Imagine
EXTD=
EXTT0=
EXTT1=
EXTT2=
EXTT3=
EXTT4=
EXTT5=
EXTT6=
EXTT7=
PLAYORDER=
